# xmcd CD database file
#
# Track frame offsets:
#	150
#	9905
#	23405
#	37572
#	51487
#	62347
#	75142
#	88737
#	105732
#	117507
#	131377
#	140980
#	156665
#	169577
#	182267
#	195592
#
# Disc length: 2784 seconds
#
# Revision: 0
# Processed by: cddbd v1.4PL0 Copyright (c) Steve Scherf et al.
# Submitted via: CDex 1.50Beta7
#
DISCID=be0ade10
DTITLE=George Hamilton IV and George Hege Hamilton V - Country Classics
DYEAR=1991
DGENRE=Country
TTITLE0=Abilene
TTITLE1=I Can't Stop Loving You
TTITLE2=Distand Drums
TTITLE3=Wayward Wind
TTITLE4=My Truly, Truly Fair
TTITLE5=Raining In My Heart
TTITLE6=It Doesn't Matter Anymore
TTITLE7=An American Trilogy
TTITLE8=Sixteen Tons
TTITLE9=Canadian Pacific
TTITLE10=Release Me
TTITLE11=Welcome To My World
TTITLE12=The Last Thing On My Mind
TTITLE13=I Walk The Line
TTITLE14=Try A Little Kinderness
TTITLE15=Green, Green, Grass Og Home
EXTD=YEAR: 1991
EXTT0=
EXTT1=
EXTT2=
EXTT3=
EXTT4=
EXTT5=
EXTT6=
EXTT7=
EXTT8=
EXTT9=
EXTT10=
EXTT11=
EXTT12=
EXTT13=
EXTT14=
EXTT15=
PLAYORDER=
